PathFileType	4	(X/Y/Z)	D:\TRACE\v60_Jaco2_6-2-23\JustBodyDRS_Motion1_5-platform.trc
DataRate	CameraRate	NumFrames	NumMarkers	Units	OrigDataRate	OrigDataStartFrame	OrigNumFrames
100.00	100.00	      67	5	mm	100.00	5865	      6702
Frame#	Time	Left_Front			Right_Front			Left_Aft			Right_Aft			Post			
		X1	Y1	Z1	X2	Y2	Z2	X3	Y3	Z3	X4	Y4	Z4	X5	Y5	Z5	

5865	58.640	-814.92358	27.99381	-633.75177	755.31641	29.19617	-639.19434	-723.49969	-4.89121	500.68643	719.31189	-7.01789	510.48175	-28.36544	1335.96851	-918.33173	
5866	58.650	-814.15997	27.53628	-634.04395	756.14276	28.71377	-639.33435	-722.52380	-4.62483	500.52240	720.17566	-6.73971	510.54752	-27.67528	1335.44031	-919.58527	
5867	58.660	-813.06738	27.18058	-634.14050	756.73511	28.45266	-639.38373	-721.68695	-4.54489	500.82349	721.07404	-6.68336	510.26221	-26.63886	1334.78174	-920.26282	
5868	58.670	-812.05847	26.84963	-634.16681	757.88892	27.88690	-639.47882	-720.20258	-4.91417	500.50497	722.27460	-6.34305	510.11133	-25.67213	1334.42383	-921.24799	
5869	58.680	-811.21033	26.80788	-634.34015	758.82098	27.58821	-639.64667	-719.07471	-4.72946	500.28415	722.84393	-6.03458	510.11267	-24.76182	1333.86133	-922.57703	
5870	58.690	-810.03503	25.96246	-634.48395	759.56378	27.36481	-639.66766	-717.84302	-4.93591	500.49670	724.47748	-5.70994	510.07602	-23.60349	1333.35132	-923.66840	
5871	58.700	-808.81982	25.72724	-634.86145	760.64746	27.03232	-639.68469	-717.05377	-4.53520	500.26306	724.92969	-5.58960	509.45987	-22.79854	1332.77478	-924.43250	
5872	58.710	-808.13416	25.60970	-634.74219	761.75110	26.49808	-639.86401	-716.17212	-4.15138	500.07037	725.43353	-5.44983	509.60242	-21.85977	1332.20801	-925.42487	
5873	58.720	-807.42322	24.87351	-634.85870	762.49976	25.57941	-640.10278	-715.51331	-3.75405	500.01068	726.52753	-5.10294	509.39890	-21.40013	1331.44226	-926.01190	
5874	58.730	-806.34912	24.33744	-635.30823	763.39630	25.42001	-640.34924	-714.36774	-3.31886	500.23630	727.15430	-4.94115	509.26624	-20.08773	1330.85864	-926.92700	
5875	58.740	-805.49854	24.23368	-635.30444	764.28394	25.15946	-640.37225	-713.61011	-2.88832	499.69638	727.45471	-5.09495	508.71625	-19.32373	1330.18213	-927.58081	
5876	58.750	-804.66492	23.83150	-635.09723	765.24066	24.49094	-640.42426	-712.83301	-2.44677	499.65326	728.29602	-5.00933	508.03647	-18.13684	1329.61365	-928.63861	
5877	58.760	-803.59766	23.27928	-635.02222	766.27124	24.12949	-640.77002	-711.80786	-2.10925	499.51196	731.62531	-2.61993	510.34869	-16.94774	1328.92847	-929.98816	
5878	58.770	-802.41046	22.73280	-635.41370	767.32935	23.78500	-640.70813	-710.67090	-1.73125	499.45770	733.11328	-2.49335	509.99033	-16.09809	1328.36377	-931.08972	
5879	58.780	-801.79633	22.49041	-635.82074	768.08252	23.56915	-640.77130	-710.17102	-1.71500	499.18781	732.87744	-2.60849	509.66736	-15.21286	1327.81299	-931.99982	
5880	58.790	-800.77850	22.35763	-635.71515	769.05170	22.97594	-640.98419	-709.01501	-1.57703	499.25909	733.63428	-2.55050	509.20352	-14.33679	1327.51477	-933.24072	
5881	58.800	-799.55280	21.99392	-635.75415	770.08630	22.72204	-640.93579	-708.06702	-1.16649	499.14819	734.64404	-2.42727	509.06641	-13.39837	1327.11279	-933.81439	
5882	58.810	-798.81091	21.72661	-635.72644	771.03906	22.82464	-641.08124	-707.32123	-0.89101	499.06226	735.47272	-2.36636	508.93414	-12.05300	1326.82166	-934.41693	
5883	58.820	-797.85785	21.19296	-635.97620	772.03839	22.40239	-641.29962	-706.56146	-0.85822	499.18460	736.15881	-2.28677	508.70334	-11.58520	1326.52625	-934.87695	
5884	58.830	-796.74933	20.94599	-636.02277	772.98096	21.99695	-641.38849	-705.47626	-0.64009	498.88586	737.09827	-1.97272	508.70877	-10.47417	1325.68347	-935.17438	
5885	58.840	-795.76221	20.51265	-636.23572	773.95587	21.68612	-641.41803	-704.45532	-0.41375	498.80582	737.88586	-1.57315	508.69839	-9.63146	1325.07166	-935.47858	
5886	58.850	-794.90436	20.30092	-636.40930	774.95544	21.21004	-641.67023	-703.38922	-0.16812	498.83856	738.96136	-1.46568	508.33383	-8.72795	1324.37317	-935.78009	
5887	58.860	-793.92401	19.57575	-636.29187	775.91101	20.85619	-641.55621	-702.55035	0.22065	498.83551	739.59442	-1.23758	508.11505	-8.03137	1323.95288	-936.28491	
5888	58.870	-792.72614	19.27927	-636.33112	776.90222	20.40935	-641.65021	-701.63086	0.50595	498.70120	740.37396	-1.00814	507.72739	-6.66915	1323.35950	-937.59131	
5889	58.880	-791.89313	18.82212	-636.49329	777.96942	19.88690	-641.93683	-700.17719	0.93934	498.57742	741.48938	-0.80173	507.59686	-6.15345	1322.75867	-938.85962	
5890	58.890	-791.13464	18.39011	-636.90741	778.82916	19.45927	-641.92896	-699.65027	0.92301	498.39252	742.24548	-0.63663	507.57849	-5.21399	1322.16785	-940.37360	
5891	58.900	-790.02667	17.84429	-637.10736	779.68616	19.15909	-641.97638	-698.50720	1.17765	498.34064	743.02698	-0.30075	507.49554	-3.83488	1321.55579	-941.78308	
5892	58.910	-789.12964	17.60906	-636.71014	780.70203	18.80257	-642.15948	-697.68121	1.51611	498.41141	744.69360	0.29662	507.51392	-3.12832	1320.94995	-943.49353	
5893	58.920	-788.08685	17.24263	-636.88702	781.90967	18.43211	-642.08191	-696.49988	1.89405	498.21103	745.16522	0.34445	507.57428	-1.77111	1320.61804	-944.66492	
5894	58.930	-787.32513	17.13783	-637.11023	782.66864	18.21111	-642.31604	-695.74268	1.95374	498.28143	746.71088	0.79886	507.54474	-0.99927	1320.22144	-945.91571	
5895	58.940	-786.15881	16.58742	-637.54694	783.73517	17.89184	-642.32904	-694.76794	2.16996	498.17227	747.68939	1.11844	507.33871	-0.34281	1319.62964	-946.80426	
5896	58.950	-785.13556	15.97574	-637.25970	784.86444	17.31991	-642.71350	-693.77631	2.40822	497.97977	748.53857	1.41098	507.51553	1.15616	1318.73059	-947.60266	
5897	58.960	-784.20636	15.75404	-637.36072	785.68890	17.07932	-642.63519	-692.71625	2.60678	497.79758	750.04926	2.02857	507.45200	1.89706	1318.22754	-947.70819	
5898	58.970	-783.29272	15.53204	-637.71594	786.48413	16.59465	-642.70477	-691.94592	2.97881	497.74957	750.69568	2.14081	507.22723	2.62341	1317.85876	-948.05237	
5899	58.980	-782.38831	15.06758	-637.68372	787.49286	16.29348	-642.56744	-691.00891	3.21655	497.68372	751.60339	2.50715	507.34552	3.90595	1317.35571	-948.34619	
5900	58.990	-781.45514	14.48463	-637.65833	788.56030	15.78244	-643.01648	-689.94427	3.54919	497.63242	752.59930	2.85387	507.22562	4.30662	1316.86707	-948.38184	
5901	59.000	-780.38098	13.95902	-637.75537	789.59790	15.27040	-643.25244	-688.92780	3.88878	497.29343	753.66559	3.13670	507.17841	5.17868	1316.23828	-948.70135	
5902	59.010	-779.56781	13.63226	-638.00726	790.22217	15.18773	-643.01434	-688.03662	3.86874	497.24710	754.88623	3.49849	507.15781	6.05123	1315.58728	-949.39661	
5903	59.020	-778.78552	13.18962	-638.11816	791.31006	14.41609	-643.24707	-687.12286	4.18962	497.14975	755.56342	3.82903	507.27124	7.23858	1314.83484	-950.23090	
5904	59.030	-777.80591	12.86683	-637.97968	792.09888	14.39883	-643.30853	-686.47186	4.56934	497.15973	756.71710	4.24706	507.06604	7.99936	1314.50415	-951.14227	
5905	59.040	-776.45844	12.70490	-638.01178	793.19531	14.22481	-643.23932	-685.26550	4.89718	496.87643	758.12018	4.82333	507.23615	9.44562	1313.97119	-952.78662	
5906	59.050	-775.55347	12.17580	-638.23743	793.90332	13.81015	-643.48840	-684.50122	5.05815	496.92249	758.96777	5.02614	507.20538	9.99461	1313.52576	-954.43066	
5907	59.060	-775.06848	12.00727	-638.59674	794.98743	13.29611	-643.63446	-683.41754	5.39733	496.79425	760.29175	5.52360	507.29593	10.97061	1312.67078	-955.80908	
5908	59.070	-774.07446	11.80149	-638.58600	795.59430	13.25635	-643.72131	-682.55450	5.38964	496.55896	758.85736	4.03675	505.46735	12.13057	1312.28369	-956.81183	
5909	59.080	-773.27625	11.55470	-638.64099	796.66022	12.89266	-643.78107	-681.58765	5.73462	496.47684	760.06268	4.76932	505.83896	12.49787	1311.85339	-957.92346	
5910	59.090	-772.50458	10.54844	-638.78241	797.69873	11.99927	-644.01563	-681.12708	6.08327	496.51883	760.94537	5.13802	506.00839	13.65339	1311.09119	-958.86218	
5911	59.100	-771.72119	10.10073	-638.80414	798.21454	11.58128	-643.98346	-680.27448	6.37287	496.35971	762.05725	5.42560	505.72980	14.57709	1310.53589	-959.30402	
5912	59.110	-770.59668	9.67681	-638.93719	799.42957	11.14383	-644.20825	-679.36383	7.03208	496.18558	762.44794	5.73815	505.77466	15.59966	1309.86230	-959.79639	
5913	59.120	-769.89520	9.45777	-639.07819	799.84570	11.13939	-644.33600	-678.38367	6.57702	496.42435	763.97125	6.21622	505.89301	16.17225	1309.25696	-960.05908	
5914	59.130	-769.03894	9.11152	-639.00098	800.74121	10.58195	-644.46448	-677.40936	6.85698	496.17871	765.27771	6.68169	505.96692	17.09542	1308.83594	-960.46600	
5915	59.140	-768.49872	8.68379	-639.09900	801.94379	10.07965	-644.87524	-676.39209	7.39406	495.89133	766.30786	7.21801	506.49493	17.93303	1308.36755	-961.09711	
5916	59.150	-767.34503	8.17966	-639.32318	802.22162	10.15490	-644.78870	-675.72046	7.72519	495.75183	766.48218	7.01038	505.08163	18.08182	1307.98584	-961.51825	
5917	59.160	-766.59528	7.87297	-639.40967	803.12915	9.54116	-644.71710	-675.19513	7.51255	495.81595	767.42657	7.46589	505.06836	19.30102	1307.41284	-962.58984	
5918	59.170	-765.84625	7.68239	-639.52515	803.80310	9.27587	-644.81525	-674.22241	7.79560	495.89099	768.19373	7.62295	505.04160	20.23050	1306.78979	-963.29688	
5919	59.180	-765.01007	7.58007	-639.50159	804.58203	9.06567	-645.06934	-673.51581	7.92736	495.90399	768.52985	7.72497	504.98923	21.06048	1306.28284	-964.19458	
5920	59.190	-764.09668	6.77354	-639.67828	805.70453	8.82403	-645.25946	-672.73834	8.38012	495.88629	769.74835	8.14078	504.89316	21.65420	1305.77698	-965.46283	
5921	59.200	-763.49048	6.73821	-639.71936	806.62720	8.12120	-645.29431	-671.97107	8.70592	495.72342	770.30389	8.24807	504.69357	22.19444	1305.32336	-966.34174	
5922	59.210	-762.72815	6.34016	-639.80200	807.09918	7.67681	-645.34698	-671.03339	9.08496	495.32822	770.84485	8.38351	504.45303	23.34926	1304.72803	-967.24744	
5923	59.220	-762.08209	5.70338	-639.97900	807.86444	7.30000	-645.36035	-670.66589	9.20982	495.37140	771.80225	8.76253	504.33636	23.72789	1304.17847	-967.66888	
5924	59.230	-761.26123	5.27108	-640.10364	808.70758	6.86297	-645.51953	-669.91162	9.38961	495.21756	772.62195	9.08848	504.25110	24.12835	1303.61108	-968.88647	
5925	59.240	-760.44330	4.89354	-640.10272	809.35291	6.51129	-645.85095	-669.00153	9.81154	495.28732	772.94659	9.18797	504.10162	25.00880	1302.88965	-969.39307	
5926	59.250	-759.91162	4.58980	-640.11682	810.04364	6.29150	-645.72644	-668.33246	10.23435	495.13846	773.63397	9.55785	504.03653	25.85542	1302.45813	-970.35132	
5927	59.260	-759.30719	4.26765	-640.16272	810.64215	6.02234	-645.62500	-668.01331	10.37528	495.09610	774.57971	9.99125	504.05371	26.43357	1301.95142	-970.82745	
5928	59.270	-758.81256	3.85776	-640.29797	811.20178	5.73801	-645.86896	-666.96283	10.66154	494.91879	775.29236	10.23862	503.98135	27.02317	1301.51135	-971.91766	
5929	59.280	-758.06641	3.80492	-640.63068	811.85889	5.33830	-646.04315	-666.51477	10.33108	494.77365	775.71625	10.32192	503.89471	27.55660	1300.77393	-972.62030	
5930	59.290	-757.28937	3.24185	-640.76068	812.62433	5.08634	-646.06519	-665.98175	10.67713	494.47003	776.49420	10.67710	503.95370	28.55464	1300.23376	-973.58105	
5931	59.300	-756.64563	2.83237	-640.82074	813.35419	4.62161	-646.12073	-664.98224	11.07717	494.42871	777.18518	11.00141	503.97144	28.74510	1299.89197	-974.05292	
